HIERARCHY
ROOT Hips
{
	OFFSET 0.00000 0.00000 0.00000
	CHANNELS 6 Xposition Yposition Zposition Zrotation Yrotation Xrotation 
	JOINT LHipJoint
	{
		OFFSET 0 0 0
		CHANNELS 3 Zrotation Yrotation Xrotation
		JOINT LeftHip
		{
			OFFSET 1.76014 -1.80163 0.38499
			CHANNELS 3 Zrotation Yrotation Xrotation
			JOINT LeftKnee
			{
				OFFSET 2.46817 -6.78126 0.00000
				CHANNELS 3 Zrotation Yrotation Xrotation
				JOINT LeftAnkle
				{
					OFFSET 2.79348 -7.67503 0.00000
					CHANNELS 3 Zrotation Yrotation Xrotation
					JOINT LeftToe
					{
						OFFSET 0.09421 -0.25885 1.91403
						CHANNELS 3 Zrotation Yrotation Xrotation
						End Site
						{
							OFFSET 0.00000 -0.00000 0.97975
						}
					}
				}
			}
		}
	}
	JOINT RHipJoint
	{
		OFFSET 0 0 0
		CHANNELS 3 Zrotation Yrotation Xrotation
		JOINT RightHip
		{
			OFFSET -1.77926 -1.80163 0.38499
			CHANNELS 3 Zrotation Yrotation Xrotation
			JOINT RightKnee
			{
				OFFSET -2.51996 -6.92353 0.00000
				CHANNELS 3 Zrotation Yrotation Xrotation
				JOINT RightAnkle
				{
					OFFSET -2.76109 -7.58603 0.00000
					CHANNELS 3 Zrotation Yrotation Xrotation
					JOINT RightToe
					{
						OFFSET -0.08067 -0.22163 1.86812
						CHANNELS 3 Zrotation Yrotation Xrotation
						End Site
						{
							OFFSET -0.00000 -0.00000 0.95558
						}
					}
				}
			}
		}
	}
	JOINT lowerback
	{
		OFFSET 0 0 0
		CHANNELS 3 Zrotation Yrotation Xrotation
		JOINT Chest
		{
			OFFSET 0.05537 1.92033 -0.03713
			CHANNELS 3 Zrotation Yrotation Xrotation
			JOINT Chest2
			{
				OFFSET 0.04452 1.90073 0.10860
				CHANNELS 3 Zrotation Yrotation Xrotation
				JOINT lowerneck
				{
					OFFSET 0 0 0
					CHANNELS 3 Zrotation Yrotation Xrotation
					JOINT Neck
					{
						OFFSET 0.00903 1.74649 0.02074
						CHANNELS 3 Zrotation Yrotation Xrotation
						JOINT Head
						{
							OFFSET -0.08608 1.67844 -0.12081
							CHANNELS 3 Zrotation Yrotation Xrotation
							End Site
							{
								OFFSET -0.03521 1.83380 -0.05059
							}
						}
					}
				}
				JOINT LeftCollar
				{
					OFFSET 0 0 0
					CHANNELS 3 Zrotation Yrotation Xrotation
					JOINT LeftShoulder
					{
						OFFSET 3.28197 0.84325 -0.19106
CHANNELS 3 Zrotation Xrotation Yrotation
						JOINT LeftElbow
						{
OFFSET 0 -5.243180 -0.000000
CHANNELS 3 Zrotation Xrotation Yrotation
							JOINT LeftWrist
							{
OFFSET 0 -2.989990 0.000000
CHANNELS 3 Zrotation Xrotation Yrotation
								JOINT lhand
								{
									OFFSET 0 0 0
CHANNELS 3 Zrotation Xrotation Yrotation
									JOINT LFingers
									{
OFFSET 0 -0.726740 0.000000
CHANNELS 3 Zrotation Xrotation Yrotation
										End Site
										{
OFFSET 0 -0.585920 0.000000
										}
									}
								}
								JOINT LThumb
								{
OFFSET 0 0.000000 0.000000
CHANNELS 3 Zrotation Xrotation Yrotation
									End Site
									{
OFFSET 0 -0.594870 0.594870
									}
								}
							}
						}
					}
				}
				JOINT RightCollar
				{
					OFFSET 0 0 0
					CHANNELS 3 Zrotation Yrotation Xrotation
					JOINT RightShoulder
					{
						OFFSET -3.30963 0.78377 0.14264
CHANNELS 3 Zrotation Xrotation Yrotation
						JOINT RightElbow
						{
OFFSET 0 -5.370450 0.000000
CHANNELS 3 Zrotation Xrotation Yrotation
							JOINT RightWrist
							{
OFFSET 0 -2.927920 0.000000
CHANNELS 3 Zrotation Xrotation Yrotation
								JOINT rhand
								{
									OFFSET 0 0 0
CHANNELS 3 Zrotation Xrotation Yrotation
									JOINT RFingers
									{
OFFSET 0 -0.784500 0.000000
CHANNELS 3 Zrotation Xrotation Yrotation
										End Site
										{
OFFSET 0 -0.632480 0.000000
										}
									}
								}
								JOINT RThumb
								{
OFFSET 0 0.000000 0.000000
CHANNELS 3 Zrotation Xrotation Yrotation
									End Site
									{
OFFSET 0 -0.642140 0.642140
									}
								}
							}
						}
					}
				}
			}
		}
	}
}
MOTION
Frames: 4
Frame Time: 0.008333333333333333
0.242750 18.193198 0.969719 0.461568 -8.228952 4.340968 0.000000 0.000000 0.000000 -21.921307 -17.993796 6.071267 0.371345 3.914168 10.835299 -1.409360 22.217805 -17.868781 0.033100 -1.174287 -3.228519 0.000000 0.000000 0.000000 18.596687 19.080062 -3.157708 -0.913435 -6.089649 17.044824 0.267560 -12.449945 -13.593531 -0.517271 4.608496 -12.795386 3.071978 0.005372 -7.006690 5.803904 -0.833476 4.834578 4.352419 -0.440052 9.148509 8.849599 5.827667 -6.981518 -13.882915 9.069947 15.204692 -5.194605 3.906068 6.805347 0.000000 0.000000 0.000000 -0.258760 -8.648485 -33.398404 18.485280 -28.756244 4.789630 -0.368030 23.441973 -18.666832 0.000000 0.000000 0.000000 -7.125000 0.000000 0.000000 -26.802982 46.719913 1.224177 0.000000 0.000000 0.000000 -12.503345 -2.281122 35.557417 -88.673986 -59.983012 -58.851788 5.743134 5.007128 3.014972 0.000000 0.000000 0.000000 7.125000 0.000000 0.000000 25.527223 32.130326 8.825993
-0.129055 18.149112 0.981549 0.318944 -9.197457 6.119567 0.000000 0.000000 0.000000 -18.960932 -12.621609 -0.424849 0.635214 5.099150 14.191539 -0.779956 17.552734 -15.567864 0.418489 -4.151715 -11.503906 0.000000 0.000000 0.000000 19.327930 20.215323 -6.110057 -1.153226 -6.818318 19.178253 0.161609 -11.315422 -13.503723 -0.486511 4.470409 -12.404267 3.971999 -0.074867 -5.701474 7.021180 -1.108035 5.612898 5.142930 -0.576072 9.280663 10.661774 11.470172 -2.634487 -19.144182 17.024033 8.935634 -6.470336 7.991707 5.726513 0.000000 0.000000 0.000000 -1.864698 10.496331 -24.188844 11.239526 -18.654438 1.851858 -9.565127 21.201544 -18.410385 0.000000 0.000000 0.000000 -7.125000 0.000000 0.000000 -34.461255 45.314618 0.305020 0.000000 0.000000 0.000000 -13.748280 18.312009 22.468147 -85.518967 -59.922883 -56.120326 6.338606 10.636272 -1.818383 0.000000 0.000000 0.000000 7.125000 0.000000 0.000000 24.770925 27.701091 11.437383
-0.411729 18.129713 0.691461 -0.138583 -6.591090 7.748380 0.000000 0.000000 0.000000 -15.981800 -11.575004 -6.588406 0.976167 6.289696 17.627197 -0.406551 13.517547 -13.044316 1.045388 -6.502065 -18.248377 0.000000 0.000000 0.000000 20.144617 19.570836 -9.593325 -1.280969 -7.172316 20.226751 0.201704 -11.657761 -13.362337 -0.342985 3.762962 -10.410911 3.939033 -0.580974 -4.588501 6.997118 -1.725252 6.126323 5.062686 -0.879607 9.225200 10.477242 10.528713 -2.453103 -18.273185 15.210868 6.379709 -6.402888 7.242661 4.549848 0.000000 0.000000 0.000000 -1.613886 8.157772 -15.861281 9.065292 -15.264349 1.217293 -11.856525 27.392252 -19.571581 0.000000 0.000000 0.000000 -7.125000 0.000000 0.000000 -36.971048 45.983441 1.041811 0.000000 0.000000 0.000000 -12.793934 16.762932 21.055649 -96.567180 -59.836383 -65.684213 8.154439 13.572799 -1.114317 0.000000 0.000000 0.000000 7.125000 0.000000 0.000000 26.206509 28.262248 11.855073
-0.473013 18.111762 0.272683 -0.274621 -3.812787 6.571241 0.000000 0.000000 0.000000 -14.992572 -12.943828 -7.914571 1.160272 6.838149 19.236781 -0.306679 11.764686 -11.335607 1.382673 -7.440405 -21.027016 0.000000 0.000000 0.000000 20.727077 17.685519 -10.736455 -1.403767 -7.494563 21.189129 0.248943 -12.252690 -13.570047 -0.160388 2.579484 -7.110169 3.930411 -0.748945 -4.364712 6.650375 -1.919208 6.427529 4.674768 -0.956409 9.419270 8.489732 6.264658 -4.903240 -16.694066 9.321272 7.821639 -6.025808 4.172532 4.335361 0.000000 0.000000 0.000000 6.961995 -11.558647 -49.586642 23.688724 -34.826281 7.531113 -3.605478 -3.497535 -18.889491 0.000000 0.000000 0.000000 -7.125000 0.000000 0.000000 -29.713458 46.494440 1.200634 0.000000 0.000000 0.000000 -16.927721 -8.229657 38.839401 -99.236040 -59.675144 -67.989913 7.472893 3.094857 -2.318437 0.000000 0.000000 0.000000 7.125000 0.000000 0.000000 25.450541 27.198903 12.159840
